<?xml version="1.0" encoding="UTF-8" standalone="no"?>
<!DOCTYPE svg PUBLIC "-//W3C//DTD SVG 1.1//EN" "http://www.w3.org/Graphics/SVG/1.1/DTD/svg11.dtd">
<svg width="100%" height="100%" viewBox="0 0 1080 1080" version="1.1" xmlns="http://www.w3.org/2000/svg" xmlns:xlink="http://www.w3.org/1999/xlink" xml:space="preserve" xmlns:serif="http://www.serif.com/" style="fill-rule:evenodd;clip-rule:evenodd;stroke-linecap:round;stroke-linejoin:round;stroke-miterlimit:1.4939;">
    <g id="BG" transform="matrix(1.45617,0,0,1.45617,-177.479,-316.846)">
        <circle cx="492.717" cy="588.424" r="370.836" style="fill:url(#_Linear1);"/>
    </g>
    <g id="Dino" transform="matrix(1.31121,0,0,1.31121,-168.053,-160.872)">
        <g id="Spine">
            <g transform="matrix(1,0,0,1,-19.9019,-42.4382)">
                <path d="M344.381,624.427C352.952,630.783 291.743,593.515 305.989,554.967C309.656,545.043 327.367,538.101 337.698,539.727C352.535,542.061 361.823,550.315 361.823,550.315C361.823,550.315 301.592,487.382 337.387,455.659C372.587,424.463 414.052,469.675 414.052,469.675C414.052,469.675 396.39,446.84 390.528,422.13C386.016,403.11 390.364,381.847 410.371,371.779C455.802,348.915 489.35,420.373 489.35,420.373C489.35,420.373 483.894,389.2 497.626,355.227C506.318,333.724 523.567,310.411 551.363,310.953C585.811,311.625 600.113,340.976 605.598,366.84C611.701,395.623 604.834,416.791 604.834,416.791C603.86,419.188 615.694,390.81 638.086,373.982C653.254,362.583 675.954,358.705 692.466,364.739C727.903,377.689 726.41,418.417 721.78,435.169C714.039,463.173 701.392,476.439 701.392,476.439C701.392,476.439 717.331,461.164 737.597,458.735C753.393,456.842 772.367,458.317 783.095,477.345C803.737,513.954 746.279,563.679 746.279,563.679C746.279,563.679 763.19,551.794 778.493,549.443C786.068,548.279 795.042,551.478 799.829,555.673C819.262,572.702 791.394,611.758 791.394,611.758C791.394,611.758 801.439,598.091 816.261,592.639C821.478,590.72 828.538,591.133 834.232,591.703C851.62,593.443 850.95,622.319 850.95,622.319C850.95,622.319 856.174,602.696 870.25,602.561C880.629,602.461 885.607,611.627 885.607,611.627C885.607,611.627 887.33,601.757 895.307,601.875C901.361,601.964 902.461,606.953 902.461,606.953C902.456,608.485 855.54,629.12 822.806,625.673C789.183,622.133 748.842,610.936 720.089,512.441C715.874,498.002 707.012,488.3 699.635,478.234C658.548,422.172 583.878,423.491 543.985,417.099C498.457,409.803 368.81,497.877 355.151,589.488L344.381,624.427Z" style="fill:rgb(26,187,157);stroke:rgb(12,85,71);stroke-width:8.37px;"/>
            </g>
            <g transform="matrix(1,0,0,1,-19.9019,-42.4382)">
                <path d="M829.04,622.594C829.111,620.298 829.167,618.137 829.438,615.906C829.62,614.411 829.804,613.009 830.151,611.568C830.603,610.571 830.16,609.393 829.163,608.941C828.165,608.489 826.988,608.931 826.535,609.929C825.575,611.288 824.794,612.671 823.983,614.154C822.808,616.303 821.871,618.465 820.872,620.761C820.367,623.015 821.786,625.256 824.04,625.761C826.294,626.267 828.534,624.848 829.04,622.594Z" style="fill:rgb(21,150,126);"/>
            </g>
            <g transform="matrix(1,0,0,1,-19.9019,-42.4382)">
                <path d="M730.423,520.994C733.375,516.956 736.371,513.363 739.528,510.215C743.065,506.689 746.674,503.717 750.471,501.32C751.438,500.806 751.806,499.603 751.293,498.636C750.779,497.668 749.576,497.3 748.609,497.814C744.176,499.758 739.849,502.343 735.511,505.532C731.635,508.382 727.856,511.729 724.055,515.561C722.556,517.318 722.765,519.962 724.523,521.461C726.28,522.96 728.924,522.751 730.423,520.994Z" style="fill:rgb(21,150,126);"/>
            </g>
            <g transform="matrix(1,0,0,1,-19.9019,-42.4382)">
                <path d="M662.299,439.844C665.211,432.962 668.352,426.402 671.929,420.301C675.697,413.871 679.874,407.973 684.7,402.784C685.484,402.02 685.501,400.763 684.737,399.978C683.972,399.193 682.715,399.176 681.93,399.941C676.349,404.862 671.37,410.593 666.766,416.922C662.428,422.884 658.49,429.365 654.761,436.205C653.757,438.285 654.63,440.789 656.711,441.793C658.791,442.798 661.295,441.924 662.299,439.844Z" style="fill:rgb(21,150,126);"/>
            </g>
            <g transform="matrix(1,0,0,1,-19.9019,-42.4382)">
                <path d="M551.438,410.493C550.328,400.074 549.541,389.985 549.413,380.444C549.319,373.436 549.56,366.759 550.291,360.488C550.465,359.407 549.728,358.387 548.646,358.213C547.565,358.04 546.545,358.776 546.372,359.858C545.061,366.232 544.215,373.067 543.685,380.272C542.971,389.989 542.876,400.321 543.084,411.018C543.229,413.323 545.218,415.077 547.523,414.932C549.829,414.787 551.583,412.798 551.438,410.493Z" style="fill:rgb(21,150,126);"/>
            </g>
            <g transform="matrix(1,0,0,1,-19.9019,-42.4382)">
                <path d="M451.391,437.895C447.116,433.573 442.991,428.935 439.178,423.548C435.751,418.708 432.564,413.341 429.733,407.126C429.336,406.105 428.185,405.599 427.164,405.996C426.143,406.393 425.636,407.544 426.033,408.565C428.251,415.387 430.946,421.364 433.948,426.823C437.327,432.967 441.122,438.36 445.117,443.435C446.646,445.167 449.293,445.331 451.024,443.802C452.755,442.273 452.92,439.626 451.391,437.895Z" style="fill:rgb(21,150,126);"/>
            </g>
            <g transform="matrix(1,0,0,1,-19.9019,-42.4382)">
                <path d="M389.282,499.105C384.076,497.303 378.951,495.119 373.948,492.065C369.388,489.282 364.942,485.876 360.645,481.479C359.929,480.65 358.675,480.557 357.845,481.273C357.016,481.988 356.923,483.242 357.639,484.072C361.632,489.332 365.923,493.547 370.411,497.122C375.414,501.107 380.664,504.172 386.057,506.829C388.189,507.719 390.642,506.711 391.532,504.579C392.422,502.448 391.414,499.995 389.282,499.105Z" style="fill:rgb(21,150,126);"/>
            </g>
            <g transform="matrix(1,0,0,1,-19.9019,-42.4382)">
                <path d="M350.324,579.188C347.175,578.532 344.109,577.81 341.095,576.712C338.153,575.64 335.323,574.359 332.607,572.548C331.768,571.844 330.515,571.954 329.811,572.793C329.108,573.633 329.218,574.886 330.057,575.589C332.598,578.244 335.392,580.347 338.363,582.244C341.355,584.154 344.488,585.682 347.732,587.147C349.928,587.862 352.292,586.66 353.007,584.464C353.723,582.267 352.52,579.903 350.324,579.188Z" style="fill:rgb(21,150,126);"/>
            </g>
            <g transform="matrix(1,0,0,1,-19.9019,-42.4382)">
                <path d="M762.355,592.909C765.432,589.398 768.512,585.961 772.094,582.864C774.381,580.887 776.79,579.046 779.522,577.434C780.512,576.966 780.936,575.781 780.467,574.791C779.999,573.801 778.815,573.377 777.825,573.845C774.567,575.036 771.61,576.535 768.758,578.206C764.402,580.759 760.497,583.755 756.59,586.84C754.915,588.431 754.847,591.082 756.438,592.757C758.028,594.431 760.68,594.5 762.355,592.909Z" style="fill:rgb(21,150,126);"/>
            </g>
        </g>
        <g id="Body" transform="matrix(1,0,0,1,-19.9019,-42.4382)">
            <path d="M338.634,620.121C342.3,604.078 384.038,411.662 548.588,410.744C608.922,410.407 659.271,430.309 690.072,463.237C740.152,516.776 743.248,578.944 765.584,596.255C787.919,613.566 816.363,623.423 843.686,622.893C871.175,622.359 897.605,602.106 906.153,608.041C915.712,614.68 898.348,634.112 894.237,641.08C890.125,648.049 829.318,709.148 735.453,731.686C735.088,739.273 737.911,779.304 707.467,779.154C677.023,779.004 679.842,741.328 679.826,731.938C679.826,731.938 602.452,736.145 565.23,735.794C527.688,735.439 451.631,731.938 451.631,731.938C451.631,731.938 456.748,779.154 423.99,779.154C391.231,779.154 397.686,733.898 396.004,731.686C392.109,731.235 383.289,730.094 371.553,731.615C333.414,736.558 273.886,753.504 244.862,740.618C219.677,729.437 213.02,718.784 210.942,696.892C209.148,677.996 227.065,641.931 253.045,627.718C279.128,613.45 315.372,619.822 338.634,620.121Z" style="fill:rgb(255,196,70);stroke:rgb(68,51,14);stroke-width:8.37px;"/>
        </g>
        <g id="Graph-Pattern" serif:id="Graph Pattern">
            <g transform="matrix(1,0,0,1,-19.9019,-42.4382)">
                <path d="M700.432,581.919L674.794,511.529L636.404,558.23L619.068,510.05L559.588,553.092" style="fill:none;stroke:rgb(150,103,46);stroke-width:8.37px;"/>
            </g>
            <g transform="matrix(1,0,0,1,-19.9019,-42.4382)">
                <path d="M601.785,596.577L700.432,581.919L663.929,637.373L700.432,581.919L736.6,626.852L700.432,581.919L636.404,558.23L559.588,553.092L619.068,510.05L674.794,511.529L619.068,510.05" style="fill:none;stroke:rgb(150,103,46);stroke-width:8.37px;"/>
            </g>
            <g transform="matrix(1,0,0,1,-19.9019,-42.4382)">
                <path d="M676.726,588.454C675.828,586.355 668.228,561.104 676.667,549.971C685.573,538.223 716.288,578.617 715.01,587.942C714.208,593.793 706.164,599.058 698.929,598.673C694.138,598.419 679.477,594.885 676.726,588.454Z" style="fill:rgb(255,144,8);stroke:rgb(77,47,10);stroke-width:8.37px;"/>
            </g>
            <g transform="matrix(1,0,0,1,-19.9019,-42.4382)">
                <path d="M732.943,641.686C729.307,639.169 718.604,623.417 728.11,616.323C739.315,607.962 747.221,625.727 743.344,632.664C740.495,637.761 736.314,644.019 732.943,641.686Z" style="fill:rgb(255,144,8);stroke:rgb(77,47,10);stroke-width:8.37px;"/>
            </g>
            <g transform="matrix(1,0,0,1,-19.9019,-42.4382)">
                <path d="M585.689,608.455C581.52,603.031 592.753,577.973 596.473,574.228C601.566,569.101 622.85,599.263 621.489,606.773C620.612,611.608 589.858,613.879 585.689,608.455Z" style="fill:rgb(255,144,8);stroke:rgb(77,47,10);stroke-width:8.37px;"/>
            </g>
            <g transform="matrix(1,0,0,1,-19.9019,-42.4382)">
                <path d="M556.812,537.246C562.629,536.033 578.739,557.291 576.127,560.606C573.515,563.922 564.016,564.735 557.847,561.571C552.582,558.872 546.114,555.025 546.564,550.146C547.014,545.267 554.137,537.803 556.812,537.246Z" style="fill:rgb(255,144,8);stroke:rgb(77,47,10);stroke-width:8.37px;"/>
            </g>
            <g transform="matrix(1,0,0,1,-19.9019,-42.4382)">
                <path d="M623.545,565.917C619.162,558.48 620.21,550.615 630.296,547.563C639.174,544.876 644.977,538.675 647.806,551.585C650.635,564.495 650.511,574.753 646.509,579.203C642.507,583.653 626.602,571.105 623.545,565.917Z" style="fill:rgb(255,144,8);stroke:rgb(77,47,10);stroke-width:8.37px;"/>
            </g>
            <g transform="matrix(1,0,0,1,-19.9019,-42.4382)">
                <path d="M611.474,524.301C602.774,515.729 607.242,497.654 611.814,495.014C616.714,492.184 623.795,498.523 631.415,504.419C639.673,510.81 646.482,518.434 641.52,524.166C636.557,529.898 612.235,525.051 611.474,524.301Z" style="fill:rgb(255,144,8);stroke:rgb(77,47,10);stroke-width:8.37px;"/>
            </g>
            <g transform="matrix(1,0,0,1,-19.9019,-42.4382)">
                <path d="M661.515,524.417C658.661,521.165 658.698,515.164 660.993,503.893C662.709,495.464 673.107,488.38 687.905,504.808C701.044,519.394 705.301,526.544 700.571,530.366C695.841,534.188 664.688,528.033 661.515,524.417Z" style="fill:rgb(255,144,8);stroke:rgb(77,47,10);stroke-width:8.37px;"/>
            </g>
            <g transform="matrix(1,0,0,1,-19.9019,-42.4382)">
                <path d="M656.306,647.582C654.429,646.446 644.397,636.963 653.58,629.001C663.296,620.576 673.542,630.844 671.782,639.692C670.351,646.891 660.556,650.154 656.306,647.582Z" style="fill:rgb(255,144,8);stroke:rgb(77,47,10);stroke-width:8.37px;"/>
            </g>
        </g>
        <g id="Eye" transform="matrix(1.10262,0,0,1.07214,-44.321,-97.3476)">
            <ellipse cx="266.665" cy="704.812" rx="8.291" ry="8.611" style="fill:rgb(39,39,39);"/>
        </g>
    </g>
    <defs>
        <linearGradient id="_Linear1" x1="0" y1="0" x2="1" y2="0" gradientUnits="userSpaceOnUse" gradientTransform="matrix(9.72367e-06,-741.672,741.672,9.72367e-06,492.717,959.26)"><stop offset="0" style="stop-color:rgb(255,228,187);stop-opacity:1"/><stop offset="1" style="stop-color:rgb(196,225,215);stop-opacity:1"/></linearGradient>
    </defs>
</svg>
