<svg xmlns="http://www.w3.org/2000/svg" width="466pt" height="98pt" viewBox="0 0 465.67 98"><g class="graph" transform="translate(4 94)"><path fill="#fff" stroke="transparent" d="M-4 4v-98h465.67V4H-4z"/><g class="node"><ellipse cx="53.3" cy="-45" fill="none" stroke="#000" rx="53.09" ry="18"/><text x="53.3" y="-41.3" font-family="Times,serif" font-size="14" text-anchor="middle">petgraph</text></g><g class="node"><ellipse cx="204.34" cy="-72" fill="none" stroke="#000" rx="59.59" ry="18"/><text x="204.34" y="-68.3" font-family="Times,serif" font-size="14" text-anchor="middle">fixedbitset</text></g><g class="edge"><path fill="none" stroke="#000" d="M100.64-53.39c13.27-2.41 27.94-5.07 41.93-7.6"/><path stroke="#000" d="m142.15-64.47 10.47 1.66-9.22 5.22-1.25-6.88z"/></g><g class="node"><ellipse cx="204.34" cy="-18" fill="none" stroke="#000" rx="61.99" ry="18"/><text x="204.34" y="-14.3" font-family="Times,serif" font-size="14" text-anchor="middle">quickcheck</text></g><g class="edge"><path fill="none" stroke="#000" d="M100.64-36.61c12.99 2.36 27.33 4.96 41.06 7.44"/><path stroke="#000" d="m142.35-32.6 9.22 5.22-10.46 1.66 1.24-6.88z"/></g><g class="node"><ellipse cx="334.58" cy="-41" fill="none" stroke="#000" rx="32.49" ry="18"/><text x="334.58" y="-37.3" font-family="Times,serif" font-size="14" text-anchor="middle">rand</text></g><g class="edge"><path fill="none" stroke="#000" d="M257.5-27.35c11.99-2.16 24.57-4.41 35.97-6.46"/><path stroke="#000" d="m293.09-37.29 10.46 1.68-9.22 5.21-1.24-6.89z"/></g><g class="node"><ellipse cx="430.37" cy="-18" fill="none" stroke="#000" rx="27.1" ry="18"/><text x="430.37" y="-14.3" font-family="Times,serif" font-size="14" text-anchor="middle">libc</text></g><g class="edge"><path fill="none" stroke="#000" d="M265.25-14.9c30.49 1.17 68.14 1.98 101.82.9 8.4-.27 17.42-.74 25.92-1.27"/><path stroke="#000" d="m392.81-18.77 10.21 2.84-9.75 4.15-.46-6.99z"/></g><g class="edge"><path fill="none" stroke="#000" d="M364.48-33.91c9.51 2.33 20.18 4.95 30.08 7.37"/><path stroke="#000" d="m395.64-29.88 8.88 5.79-10.55 1.01 1.67-6.8z"/></g></g></svg>