<svg xmlns="http://www.w3.org/2000/svg" width="556" height="98pt" viewBox="0 0 416.69 98"><g class="graph"><path fill="#fff" d="M0 98V0h416.69v98H0z"/><g class="node" transform="translate(4 94)"><ellipse cx="43.16" cy="-45" fill="none" stroke="#000" rx="43.16" ry="18"/><text x="43.16" y="-39.95" font-family="Times,serif" font-size="14" text-anchor="middle">petgraph</text></g><g class="node" transform="translate(4 94)"><ellipse cx="175.21" cy="-72" fill="none" stroke="#000" rx="49.82" ry="18"/><text x="175.21" y="-66.95" font-family="Times,serif" font-size="14" text-anchor="middle">fixedbitset</text></g><g class="edge" transform="translate(4 94)"><path fill="none" stroke="#000" d="M82.48-52.95c12.06-2.51 25.6-5.32 38.5-8"/><path stroke="#000" d="m120.11-64.55 10.51 1.39-9.08 5.46-1.43-6.85z"/></g><g class="node" transform="translate(4 94)"><ellipse cx="175.21" cy="-18" fill="none" stroke="#000" rx="52.89" ry="18"/><text x="175.21" y="-12.95" font-family="Times,serif" font-size="14" text-anchor="middle">quickcheck</text></g><g class="edge" transform="translate(4 94)"><path fill="none" stroke="#000" d="M82.48-37.05c11.36 2.36 24.03 4.99 36.25 7.53"/><path stroke="#000" d="m119.22-32.78 9.08 5.46-10.51 1.39 1.43-6.85z"/></g><g class="node" transform="translate(4 94)"><ellipse cx="291.4" cy="-41" fill="none" stroke="#000" rx="27.3" ry="18"/><text x="291.4" y="-35.95" font-family="Times,serif" font-size="14" text-anchor="middle">rand</text></g><g class="edge" transform="translate(4 94)"><path fill="none" stroke="#000" d="M221.34-27.09c11.01-2.22 22.64-4.56 33.16-6.68"/><path stroke="#000" d="m253.48-37.34 10.5 1.46-9.11 5.41-1.39-6.87z"/></g><g class="node" transform="translate(4 94)"><ellipse cx="381.69" cy="-18" fill="none" stroke="#000" rx="27" ry="18"/><text x="381.69" y="-12.95" font-family="Times,serif" font-size="14" text-anchor="middle">libc</text></g><g class="edge" transform="translate(4 94)"><path fill="none" stroke="#000" d="M227.66-15.06c27.08 1.17 60.86 2.03 91.03 1.06 8.08-.26 16.74-.71 24.95-1.22"/><path stroke="#000" d="m343.25-18.77 10.21 2.84-9.74 4.15-.47-6.99z"/></g><g class="edge" transform="translate(4 94)"><path fill="none" stroke="#000" d="M316.99-34.59c8.82 2.3 18.95 4.93 28.5 7.42"/><path stroke="#000" d="m346.13-30.36 8.79 5.91-10.56.86 1.77-6.77z"/></g></g></svg>